<?xml version="1.0" encoding="utf-8"?>
<!-- Generator: Adobe Illustrator 21.0.0, SVG Export Plug-In . SVG Version: 6.00 Build 0)  -->
<svg version="1.1"
	 id="svg2" inkscape:version="0.91 r13725" sodipodi:docname="logo-green.svg" xmlns:cc="http://creativecommons.org/ns#" xmlns:dc="http://purl.org/dc/elements/1.1/" xmlns:inkscape="http://www.inkscape.org/namespaces/inkscape" xmlns:rdf="http://www.w3.org/1999/02/22-rdf-syntax-ns#" xmlns:sodipodi="http://sodipodi.sourceforge.net/DTD/sodipodi-0.dtd" xmlns:svg="http://www.w3.org/2000/svg"
	 xmlns="http://www.w3.org/2000/svg" xmlns:xlink="http://www.w3.org/1999/xlink" x="0px" y="0px" viewBox="0 0 592.8 258.7"
	 style="enable-background:new 0 0 592.8 258.7;" xml:space="preserve">
<style type="text/css">
	.st0{fill:#A5CF00;}
</style>
<g id="g14">
	<g id="g20" transform="translate(130.2502,176.0485)">
		<path id="path22" inkscape:connector-curvature="0" class="st0" d="M-54.3-77.6c0.2-8.1-1.7-15.2-5.8-21.2c-4.1-6-10.9-9-20.3-9
			c-9.4,0-16.6,4.3-21.6,12.9c-5,8.6-7.5,20.7-7.5,36.5c0,15.8,2.7,27.8,8.1,36.2C-96-13.9-88.2-9.7-78-9.7s20.9-4.7,32.3-14.1
			c5,3.3,8.3,7.6,9.8,12.8c-5.4,5.4-12.2,9.9-20.3,13.3c-8.1,3.4-16.2,5.2-24.2,5.2c-8,0-14.8-1.2-20.2-3.6
			c-5.5-2.4-10-5.7-13.7-9.8c-3.6-4.1-6.6-9-9-14.5c-4.6-10.6-6.8-22.9-6.8-37c0-21.8,4.8-38.3,14.3-49.5
			c9.6-11.2,21.3-16.7,35.3-16.7c14,0,25.1,3.6,33.3,10.7c8.2,7.2,12.3,15.6,12.3,25.3c0,7.4-3.7,11.1-11.1,11.1
			C-48.3-76.5-51-76.8-54.3-77.6"/>
	</g>
	<g id="g24" transform="translate(186.7552,120.1298)">
		<path id="path26" inkscape:connector-curvature="0" class="st0" d="M-40.1,48.3c7.9,0,15.2-3.7,21.8-11.1V19.6
			c-4.9-0.5-10.3-0.7-16.2-0.7c-5.9,0-10.3,1.4-13.4,4.2c-3.1,2.8-4.6,6.4-4.6,10.9c0,4.5,1.1,8,3.3,10.5
			C-47,47-43.9,48.3-40.1,48.3 M5.7,52.5c-1.5,4.6-3.9,7.8-7.2,9.8c-7.3-1.4-12.2-5.2-14.8-11.5c-8.6,8.4-17.6,12.6-26.9,12.6
			c-9.3,0-16.4-2.7-21.2-8.1c-4.8-5.4-7.2-11.8-7.2-19c0-10.1,3.3-17.8,9.8-22.9c6.5-5.2,15.1-7.8,25.7-7.8c6.2,0,12.1,0.4,17.8,1.3
			v-7.2c0-11-5.1-16.5-15.2-16.5c-7.2,0-16.8,2.3-29,7C-66-13-67.8-17.6-68-23.7c12.7-5.7,25.5-8.5,38.3-8.5
			c9.5,0,16.9,2.6,22.3,7.8c5.4,5.2,8,12.9,8,23.1v37.9C0.6,44.3,2.3,49.6,5.7,52.5"/>
	</g>
	<g id="g28" transform="translate(274.6741,172.0546)">
		<path id="path30" inkscape:connector-curvature="0" class="st0" d="M-18.1-68.6c-8,0-14.8,4-20.3,12v45.3
			c6.7,4.4,12.8,6.7,18.3,6.7c5.5,0,10.1-2.8,13.6-8.4c3.5-5.6,5.3-13.7,5.3-24.3c0-10.6-1.6-18.5-4.8-23.6
			C-9.3-66-13.3-68.6-18.1-68.6 M-13.3-84.7c10,0,17.7,4.3,23.2,12.8c5.5,8.5,8.2,20.2,8.2,35.1c0,14.9-3.5,26.6-10.4,34.9
			c-7,8.4-15.3,12.6-25.1,12.6c-6.8,0-13.8-2-21.1-6.1v32c0,4.3-0.8,7.4-2.3,9.3c-1.5,1.9-4.2,2.9-8,2.9h-7.4l-1.1-1.1V-81.9
			l1.1-1.1h5.9c6.2,0,9.9,3.1,11.3,9.4C-31.9-81-23.3-84.7-13.3-84.7"/>
	</g>
	<g id="g32" transform="translate(451.9722,114.7147)">
		<path id="path34" inkscape:connector-curvature="0" class="st0" d="M26.2,60.4c-6.6,5.5-14.5,8.3-23.8,8.3
			c-12.2,0-22.1-3.3-29.8-9.9c1-4.8,3.6-8.9,8.1-12.4c6.2,4.7,12.3,7,18.1,7c5.8,0,10.3-1.5,13.4-4.4c3.1-2.9,4.7-6.8,4.7-11.7
			c0-4.8-1.3-8.6-4-11.1c-2.7-2.6-5.9-3.9-9.6-3.9c-3.7,0-6.9,0.7-9.6,2c-1.6-0.7-3.1-2-4.5-3.9c-1.3-1.9-2.3-4-2.7-6.2L1.9-2.2
			c4.5-4.5,7.8-7.5,9.8-9.1l-0.6-0.9c-3.5,1.1-8.5,1.6-15.3,1.6H-23c-0.8-2.2-1.2-4.8-1.2-7.8c0-3,0.5-5.7,1.6-8.2h51.1
			c2.6,4.7,3.9,8.5,3.9,11.3c0,2.8-1.2,5.5-3.7,8.1L15.7,6.4c-1.7,1.7-3.3,3.1-4.7,4c7.4,0.7,13.4,3.3,18.1,8c4.7,4.7,7,11.4,7,20.4
			C36,47.7,32.7,54.9,26.2,60.4 M12.4-114.7C-58-114.7-117-57.6-117,12.7V144H14.3c70.4,0,126.5-59,126.5-129.4
			C140.8-55.7,82.8-114.7,12.4-114.7"/>
	</g>
</g>
</svg>
